<svg xmlns="http://www.w3.org/2000/svg" xml:space="preserve" style="fill-rule:evenodd;clip-rule:evenodd;stroke-linejoin:round;stroke-miterlimit:2" viewBox="0 0 636 631"><path id="letters" d="m613.75 466.13-1.77 2.026c1.896 1.628 4.163 2.442 6.799 2.442 4.077-.049 6.161-1.774 6.25-5.176 0-1.261-.394-2.368-1.184-3.32-.797-.969-2.03-1.567-3.698-1.795a53.595 53.595 0 0 1-2.002-.28c-.879-.163-1.518-.456-1.917-.879-.399-.415-.598-.879-.598-1.392.016-.854.313-1.497.891-1.929.553-.415 1.245-.622 2.075-.622a8.155 8.155 0 0 1 4.407 1.367l1.501-2.222c-1.635-1.18-3.56-1.794-5.773-1.843-1.84.016-3.26.496-4.261 1.44-1.033.953-1.55 2.206-1.55 3.76 0 1.294.411 2.393 1.233 3.296.797.879 1.961 1.445 3.491 1.697.855.122 1.64.232 2.356.329 1.563.269 2.336 1.067 2.319 2.393-.032 1.619-1.204 2.446-3.515 2.478-1.953-.016-3.638-.606-5.054-1.77ZM625.624 470.451h7.495c1.399 0 2.567-.468 3.503-1.403.944-.896 1.424-2.112 1.441-3.65 0-.928-.232-1.787-.696-2.576-.497-.765-1.229-1.274-2.198-1.526v-.049a5.784 5.784 0 0 0 1.294-.818 3.42 3.42 0 0 0 .806-.903 4.112 4.112 0 0 0 .525-2.1c0-1.432-.444-2.583-1.331-3.454a4.07 4.07 0 0 0-1.332-.861 5.87 5.87 0 0 0-1.302-.354 8.87 8.87 0 0 0-1.308-.104h-6.897v17.798Zm6.848-7.898c1.001.017 1.733.281 2.197.794.464.521.696 1.147.696 1.88 0 .716-.232 1.334-.696 1.855-.464.529-1.196.802-2.197.818h-4.151v-5.347h4.151Zm-.257-7.495c.985.017 1.709.257 2.173.72.472.497.708 1.103.708 1.819s-.236 1.311-.708 1.783c-.464.512-1.188.769-2.173.769h-3.894v-5.091h3.894Z" style="fill-rule:nonzero" transform="translate(-11932.333 -8728.507) scale(19.5993)"/><path id="star" d="m317.645-.006 68.923 40.369 79.788-3.715 42.268 67.775L581 138.213l5.93 79.655 48.382 63.553-31.767 73.286 13.305 78.76-62.186 50.13-24.82 75.92-78.359 15.487-57.259 55.69-76.58-22.7-76.582 22.7-57.259-55.69-78.359-15.488-24.82-75.92-62.186-50.13 13.305-78.759-31.767-73.286 48.382-63.553 5.93-79.655 72.376-33.79 42.268-67.775 79.788 3.715 68.923-40.37Zm146.177 136.95-27.208-43.627-63.83 2.972-55.139-32.295-55.138 32.295-63.83-2.972-26.292 42.156c-27.438 3.412-49.35 13.004-65.814 28.528-21.494 19.815-32.354 45.873-32.354 78.242 0 9.96 1.173 19.364 3.514 28.214l-14.219 18.68 25.413 58.628-10.644 63.007 4.193 3.38-25.136 28.776a6.252 6.252 0 0 0 .636 8.855c24.997 21.456 53.172 35.928 84.54 43.395l5.372 16.434 62.687 12.39 45.807 44.552 61.265-18.16 61.265 18.16 45.807-44.552 62.687-12.39 4.693-14.355c22.305-2.96 41.394-12.408 57.292-28.289 19.62-18.636 29.767-43.91 30.106-75.932v-.066c0-19.324-4.837-37.206-14.499-53.648a6.198 6.198 0 0 0-.145-.236c-2.829-4.359-6.014-8.332-9.559-11.917l16.486-38.033-7.642-10.039c7.058-13.517 10.414-27.664 10.095-42.436-.014-29.9-9.42-53.898-27.949-72.088l-.001-.001c-7.768-7.623-17.135-13.7-28.123-18.193-8.081-3.304-17.049-5.754-26.91-7.328-8.225-1.313-17.079-2.018-26.564-2.107H463.822Z"/></svg>