<?xml version="1.0" encoding="UTF-8" standalone="no"?>
<!DOCTYPE svg PUBLIC "-//W3C//DTD SVG 1.1//EN" "http://www.w3.org/Graphics/SVG/1.1/DTD/svg11.dtd">
<svg width="100%" height="100%" viewBox="0 0 636 631" version="1.1" xmlns="http://www.w3.org/2000/svg" xmlns:xlink="http://www.w3.org/1999/xlink" xml:space="preserve" xmlns:serif="http://www.serif.com/" style="fill-rule:evenodd;clip-rule:evenodd;stroke-linejoin:round;stroke-miterlimit:2;">
    <g transform="matrix(1,0,0,1,-322.333,-82.3869)">
        <g transform="matrix(19.5993,0,0,19.5993,-11610,-8646.12)">
            <path id="S" d="M613.75,466.13L611.98,468.156C613.876,469.784 616.143,470.598 618.779,470.598C622.856,470.549 624.94,468.824 625.029,465.422C625.029,464.161 624.635,463.054 623.845,462.102C623.048,461.133 621.815,460.535 620.147,460.307C619.3,460.201 618.633,460.108 618.145,460.027C617.266,459.864 616.627,459.571 616.228,459.148C615.829,458.733 615.63,458.269 615.63,457.756C615.646,456.902 615.943,456.259 616.521,455.827C617.074,455.412 617.766,455.205 618.596,455.205C620.199,455.237 621.668,455.693 623.003,456.572L624.504,454.35C622.869,453.17 620.944,452.556 618.731,452.507C616.891,452.523 615.471,453.003 614.47,453.947C613.437,454.9 612.92,456.153 612.92,457.707C612.92,459.001 613.331,460.1 614.153,461.003C614.95,461.882 616.114,462.448 617.644,462.7C618.499,462.822 619.284,462.932 620,463.029C621.563,463.298 622.336,464.096 622.319,465.422C622.287,467.041 621.115,467.868 618.804,467.9C616.851,467.884 615.166,467.294 613.75,466.13Z" style="fill-rule:nonzero;"/>
            <path id="B" d="M625.624,470.451L633.119,470.451C634.518,470.451 635.686,469.983 636.622,469.048C637.566,468.152 638.046,466.936 638.063,465.398C638.063,464.47 637.831,463.611 637.367,462.822C636.87,462.057 636.138,461.548 635.169,461.296L635.169,461.247C635.682,461.003 636.113,460.73 636.463,460.429C636.813,460.145 637.082,459.843 637.269,459.526C637.635,458.859 637.81,458.159 637.794,457.426C637.794,455.994 637.35,454.843 636.463,453.972C636.096,453.611 635.652,453.324 635.131,453.111C634.74,452.951 634.306,452.833 633.829,452.757C633.424,452.692 632.988,452.658 632.521,452.653L625.624,452.653L625.624,470.451ZM632.472,462.553C633.473,462.57 634.205,462.834 634.669,463.347C635.133,463.868 635.365,464.494 635.365,465.227C635.365,465.943 635.133,466.561 634.669,467.082C634.205,467.611 633.473,467.884 632.472,467.9L628.321,467.9L628.321,462.553L632.472,462.553ZM632.215,455.058C633.2,455.075 633.924,455.315 634.388,455.778C634.86,456.275 635.096,456.881 635.096,457.597C635.096,458.313 634.86,458.908 634.388,459.38C633.924,459.892 633.2,460.149 632.215,460.149L628.321,460.149L628.321,455.058L632.215,455.058Z" style="fill-rule:nonzero;"/>
            <g id="star" transform="matrix(0.0510222,0,0,0.0510222,592.367,441.144)">
                <path d="M640,82.387L708.923,122.756L788.711,119.041L830.979,186.816L903.355,220.606L909.285,300.261L957.667,363.815L925.9,437.101L939.205,515.86L877.019,565.99L852.199,641.91L773.84,657.398L716.581,713.088L640,690.387L563.419,713.088L506.16,657.398L427.801,641.91L402.981,565.99L340.795,515.86L354.1,437.101L322.333,363.815L370.715,300.261L376.645,220.606L449.021,186.816L491.289,119.041L571.077,122.756L640,82.387ZM786.177,219.337L758.969,175.71L695.138,178.682L640,146.387L584.862,178.682L521.031,175.71L494.74,217.866C467.302,221.278 445.39,230.87 428.926,246.394C407.432,266.209 396.572,292.267 396.572,324.636C396.572,334.597 397.745,344.001 400.086,352.851L385.867,371.53L411.28,430.159L400.636,493.166L404.829,496.546L379.693,525.322C378.596,526.578 378.047,528.219 378.166,529.882C378.286,531.545 379.064,533.091 380.329,534.177C405.326,555.633 433.501,570.105 464.868,577.572L470.241,594.006L532.928,606.396L578.735,650.948L640,632.787L701.265,650.948L747.072,606.396L809.759,594.006L814.452,579.651C836.757,576.691 855.846,567.243 871.744,551.362C891.364,532.726 901.511,507.452 901.85,475.43C901.85,475.408 901.85,475.386 901.85,475.364C901.85,456.04 897.013,438.158 887.351,421.716C887.304,421.636 887.256,421.557 887.206,421.48C884.377,417.121 881.192,413.148 877.647,409.563L894.133,371.53L886.491,361.491C893.549,347.974 896.905,333.826 896.586,319.054C896.572,289.155 887.166,265.156 868.637,246.966C868.636,246.966 868.636,246.966 868.636,246.965C860.868,239.342 851.501,233.266 840.513,228.772C832.432,225.468 823.464,223.018 813.603,221.444C805.378,220.131 796.524,219.426 787.039,219.337C787.019,219.337 787,219.337 786.981,219.337L786.177,219.337Z"/>
            </g>
        </g>
    </g>
</svg>
